#!OML:ASF G:\JayActor3\Patient Classification 1\Patient 1\Session 6\male.ASF
:FULLY-SPECIFIED
:DEGREES
1908
root -34.8892 15.2765 -13.1179 541.98 -13.856 -536.447
lowerback 23.8563 -0.86837 4.76647
upperback 9.02246 -1.83676 -0.670281
thorax -3.44781 -1.52926 -2.92358
lowerneck 14.7813 -0.662271 5.34382
upperneck -10.279 0.227809 0.514601
head -5.51763 -0.166764 -0.717446
rclavicle 1.78906e-014 -1.47101e-014
rhumerus -29.6276 11.9473 -86.9929
rradius 119.341
rwrist 14.3097
rhand 14.1242 -17.258
rfingers 7.12502
rthumb 39.0266 -42.7704
lclavicle 1.78906e-014 -1.47101e-014
lhumerus -35.3418 -2.92598 78.1833
lradius 124.876
lwrist 9.3395
lhand 3.59603 30.6618
lfingers 7.12502
lthumb 29.03 58.4204
rfemur -38.3153 -6.73185 23.4929
rtibia 62.0174
rfoot -25.5196 -12.4254
rtoes -7.86211
lfemur -34.792 18.2225 -17.2123
ltibia 58.7122
lfoot -25.4464 4.13815
ltoes -19.47
1909
root -34.8886 15.2825 -13.1194 541.938 -13.8666 -536.435
lowerback 23.8423 -0.854948 4.76028
upperback 9.03382 -1.82264 -0.648956
thorax -3.42651 -1.52305 -2.90126
lowerneck 14.7859 -0.673456 5.3527
upperneck -10.1893 0.213474 0.515518
head -5.49042 -0.172063 -0.717173
rclavicle -3.06128e-014 1.74931e-014
rhumerus -29.6333 11.9608 -86.9557
rradius 119.307
rwrist 14.3279
rhand 14.1314 -17.2761
rfingers 7.12502
rthumb 39.0334 -42.7866
lclavicle -3.06128e-014 1.74931e-014
lhumerus -35.2986 -2.96662 78.211
lradius 124.815
lwrist 9.36323
lhand 3.62842 30.6821
lfingers 7.12502
lthumb 29.0609 58.4354
rfemur -38.1953 -6.69207 23.4962
rtibia 61.9064
rfoot -25.5092 -12.4588
rtoes -7.81406
lfemur -34.6783 18.1785 -17.1808
ltibia 58.6048
lfoot -25.4165 4.16521
ltoes -19.458
1910
root -34.888 15.2892 -13.1212 541.892 -13.8801 -536.422
lowerback 23.8238 -0.841402 4.75368
upperback 9.04382 -1.808 -0.626821
thorax -3.40446 -1.51637 -2.87806
lowerneck 14.7951 -0.68393 5.35944
upperneck -10.091 0.200331 0.5215
head -5.46121 -0.176952 -0.715044
rclavicle 2.90226e-014 -3.06128e-014
rhumerus -29.6409 11.9692 -86.921
rradius 119.264
rwrist 14.352
rhand 14.1413 -17.2827
rfingers 7.12502
rthumb 39.0428 -42.7904
lclavicle 2.90226e-014 -3.06128e-014
lhumerus -35.2504 -3.01426 78.2388
lradius 124.746
lwrist 9.38517
lhand 3.66273 30.7151
lfingers 7.12502
lthumb 29.0937 58.4627
rfemur -38.0624 -6.64822 23.5001
rtibia 61.7813
rfoot -25.4935 -12.5006
rtoes -7.78685
lfemur -34.5528 18.1397 -17.1465
ltibia 58.4824
lfoot -25.3797 4.18477
ltoes -19.4525
1911
root -34.8873 15.2966 -13.1236 541.841 -13.896 -536.415
lowerback 23.8044 -0.825259 4.7386
upperback 9.0534 -1.79173 -0.605838
thorax -3.38227 -1.50895 -2.85169
lowerneck 14.8054 -0.697159 5.36603
upperneck -9.98046 0.184154 0.535882
head -5.42846 -0.183766 -0.709952
rclavicle -1.33186e-014 0
rhumerus -29.6397 11.9562 -86.8949
rradius 119.201
rwrist 14.382
rhand 14.1618 -17.2795
rfingers 7.12502
rthumb 39.0621 -42.7817
lclavicle -1.33186e-014 0
lhumerus -35.1961 -3.06814 78.2675
lradius 124.665
lwrist 9.40175
lhand 3.69241 30.7426
lfingers 7.12502
lthumb 29.122 58.4853
rfemur -37.9111 -6.60196 23.4966
rtibia 61.6413
rfoot -25.4683 -12.5243
rtoes -7.71112
lfemur -34.4067 18.1052 -17.115
ltibia 58.3419
lfoot -25.3362 4.19471
ltoes -19.456
1912
root -34.8865 15.3051 -13.1266 541.783 -13.9147 -536.412
lowerback 23.7805 -0.80824 4.71773
upperback 9.0631 -1.7756 -0.585415
thorax -3.35781 -1.50154 -2.8227
lowerneck 14.8278 -0.710425 5.36434
upperneck -9.86926 0.168536 0.564278
head -5.39752 -0.191168 -0.699145
rclavicle -2.18663e-015 -5.56597e-015
rhumerus -29.6411 11.9417 -86.8685
rradius 119.133
rwrist 14.4035
rhand 14.178 -17.2731
rfingers 7.12502
rthumb 39.0773 -42.7709
lclavicle -2.18663e-015 -5.56597e-015
lhumerus -35.1382 -3.12417 78.2978
lradius 124.575
lwrist 9.40836
lhand 3.71983 30.7651
lfingers 7.12502
lthumb 29.1482 58.5033
rfemur -37.7402 -6.55607 23.4881
rtibia 61.4851
rfoot -25.4378 -12.5011
rtoes -7.51322
lfemur -34.2401 18.077 -17.0835
ltibia 58.1821
lfoot -25.2858 4.19885
ltoes -19.4735
1913
root -34.8858 15.3146 -13.1303 541.718 -13.9356 -536.41
lowerback 23.7543 -0.790737 4.69462
upperback 9.07261 -1.75926 -0.565686
thorax -3.33243 -1.49398 -2.79328
lowerneck 14.8538 -0.726776 5.36641
upperneck -9.75182 0.149337 0.591449
head -5.36528 -0.200273 -0.68901
rclavicle -2.78299e-014 2.70347e-014
rhumerus -29.6397 11.9178 -86.8476
rradius 119.053
rwrist 14.4215
rhand 14.1981 -17.2707
rfingers 7.12502
rthumb 39.0963 -42.7631
lclavicle -2.78299e-014 2.70347e-014
lhumerus -35.0813 -3.18323 78.3289
lradius 124.479
lwrist 9.40484
lhand 3.74403 30.7797
lfingers 7.12502
lthumb 29.1713 58.5139
rfemur -37.5458 -6.50502 23.4777
rtibia 61.3097
rfoot -25.3953 -12.4639
rtoes -7.26135
lfemur -34.049 18.0481 -17.0486
ltibia 58.0012
lfoot -25.2293 4.19942
ltoes -19.4822
1914
root -34.8851 15.3253 -13.1347 541.644 -13.9555 -536.407
lowerback 23.7241 -0.772618 4.66785
upperback 9.0841 -1.74345 -0.545385
thorax -3.30291 -1.48678 -2.76113
lowerneck 14.8826 -0.744078 5.3814
upperneck -9.63656 0.129417 0.599922
head -5.33416 -0.20883 -0.686795
rclavicle 1.03368e-014 -8.34896e-015
rhumerus -29.6415 11.9045 -86.8252
rradius 118.974
rwrist 14.4325
rhand 14.2126 -17.2728
rfingers 7.12502
rthumb 39.11 -42.7612
lclavicle 1.03368e-014 -8.34896e-015
lhumerus -35.0207 -3.23381 78.3637
lradius 124.373
lwrist 9.38235
lhand 3.77641 30.791
lfingers 7.12502
lthumb 29.2022 58.5198
rfemur -37.3263 -6.45048 23.4666
rtibia 61.1141
rfoot -25.3478 -12.3995
rtoes -6.9282
lfemur -33.8308 18.0228 -17.0072
ltibia 57.7976
lfoot -25.1681 4.19129
ltoes -19.4817
1915
root -34.8847 15.3374 -13.1398 541.56 -13.9755 -536.399
lowerback 23.6896 -0.756537 4.64393
upperback 9.09757 -1.73021 -0.525274
thorax -3.26937 -1.48083 -2.73028
lowerneck 14.9163 -0.761065 5.39123
upperneck -9.52179 0.109469 0.611422
head -5.30402 -0.217495 -0.682795
rclavicle -5.96354e-016 4.77083e-015
rhumerus -29.6467 11.9038 -86.8035
rradius 118.902
rwrist 14.4401
rhand 14.2247 -17.2874
rfingers 7.12502
rthumb 39.1214 -42.7726
lclavicle -5.96354e-016 4.77083e-015
lhumerus -34.9618 -3.27559 78.3979
lradius 124.264
lwrist 9.34722
lhand 3.80681 30.7987
lfingers 7.12502
lthumb 29.2312 58.5224
rfemur -37.0798 -6.3955 23.4596
rtibia 60.8951
rfoot -25.2911 -12.3419
rtoes -6.60961
lfemur -33.5838 17.988 -16.9556
ltibia 57.5706
lfoot -25.1036 4.18688
ltoes -19.4532
1916
root -34.8844 15.3507 -13.1457 541.469 -13.9929 -536.389
lowerback 23.6486 -0.740455 4.61733
upperback 9.11265 -1.71805 -0.50554
thorax -3.23094 -1.47538 -2.69821
lowerneck 14.9441 -0.77926 5.4203
upperneck -9.40529 0.0883136 0.597096
head -5.27233 -0.225424 -0.68993
rclavicle -5.36719e-015 8.74653e-015
rhumerus -29.6537 11.9144 -86.783
rradius 118.834
rwrist 14.4506
rhand 14.2361 -17.3018
rfingers 7.12502
rthumb 39.1321 -42.7838
lclavicle -5.36719e-015 8.74653e-015
lhumerus -34.9034 -3.3106 78.4311
lradius 124.152
lwrist 9.29856
lhand 3.83135 30.8098
lfingers 7.12502
lthumb 29.2547 58.5295
rfemur -36.8099 -6.32397 23.4521
rtibia 60.6546
rfoot -25.24 -12.3137
rtoes -6.33313
lfemur -33.3118 17.9546 -16.8984
ltibia 57.3196
lfoot -25.0344 4.17762
ltoes -19.4151
1917
root -34.8844 15.3654 -13.1524 541.37 -14.0088 -536.377
lowerback 23.6023 -0.725556 4.59346
upperback 9.12926 -1.7073 -0.487102
thorax -3.18843 -1.47053 -2.66889
lowerneck 14.962 -0.799236 5.46084
upperneck -9.28415 0.0649746 0.571722
head -5.23762 -0.233907 -0.702205
rclavicle -5.96354e-015 2.10712e-014
rhumerus -29.6575 11.9294 -86.7671
rradius 118.771
rwrist 14.4687
rhand 14.2562 -17.3198
rfingers 7.12502
rthumb 39.1511 -42.7964
lclavicle -5.96354e-015 2.10712e-014
lhumerus -34.8437 -3.33923 78.4607
lradius 124.04
lwrist 9.24755
lhand 3.8474 30.8213
lfingers 7.12502
lthumb 29.27 58.5383
rfemur -36.5148 -6.24801 23.4472
rtibia 60.3914
rfoot -25.1881 -12.3242
rtoes -6.14112
lfemur -33.0126 17.9202 -16.8342
ltibia 57.0444
lfoot -24.9587 4.17158
ltoes -19.3723
1918
root -34.8847 15.3814 -13.1598 541.264 -14.0244 -536.361
lowerback 23.5479 -0.712033 4.57003
upperback 9.14739 -1.69868 -0.469927
thorax -3.14045 -1.46656 -2.64085
lowerneck 14.9657 -0.819655 5.50643
upperneck -9.15584 0.0406948 0.545181
head -5.1984 -0.242817 -0.715586
rclavicle 1.92821e-014 0
rhumerus -29.6582 11.9499 -86.7542
rradius 118.711
rwrist 14.4894
rhand 14.2833 -17.3272
rfingers 7.12502
rthumb 39.1766 -42.7964
lclavicle 1.92821e-014 0
lhumerus -34.7868 -3.36685 78.4842
lradius 123.933
lwrist 9.19889
lhand 3.86428 30.8446
lfingers 7.12502
lthumb 29.2861 58.5587
rfemur -36.1965 -6.16693 23.4424
rtibia 60.107
rfoot -25.1517 -12.3608
rtoes -5.99833
lfemur -32.6886 17.8805 -16.7639
ltibia 56.7438
lfoot -24.8755 4.16616
ltoes -19.3006
1919
root -34.8851 15.3987 -13.1681 541.151 -14.039 -536.349
lowerback 23.4868 -0.698757 4.53846
upperback 9.1665 -1.6924 -0.452784
thorax -3.0883 -1.4638 -2.60778
lowerneck 14.9475 -0.840726 5.55601
upperneck -9.01429 0.0137842 0.511937
head -5.15154 -0.252312 -0.731521
rclavicle -7.95139e-016 -3.61788e-014
rhumerus -29.6458 11.9673 -86.7475
rradius 118.644
rwrist 14.5179
rhand 14.3252 -17.3252
rfingers 7.12502
rthumb 39.2161 -42.783
lclavicle -7.95139e-016 -3.61788e-014
lhumerus -34.7326 -3.38778 78.5076
lradius 123.831
lwrist 9.15649
lhand 3.86772 30.8742
lfingers 7.12502
lthumb 29.2894 58.5878
rfemur -35.8526 -6.08437 23.4316
rtibia 59.8012
rfoot -25.1235 -12.4076
rtoes -5.87309
lfemur -32.3367 17.8401 -16.6943
ltibia 56.4172
lfoot -24.7858 4.16352
ltoes -19.2286
